# AST/ASF file generated using VICON BodyLanguage
# -----------------------------------------------
:version 1.10
:name VICON
:units
  mass 1.0
  length 0.45
  angle deg
:documentation
   .ast/.asf automatically generated from VICON data using
   VICON BodyBuilder and BodyLanguage model FoxedUp or BRILLIANT.MOD
:root
   order TX TY TZ RX RY RZ
   axis XYZ
   position 0 0 0  
   orientation 0 0 0 
:bonedata
  begin
     id 1 
     name lhipjoint
     direction 0.635376 -0.686425 0.353719 
     length 2.47244 
     axis 0 0 0  XYZ
  end
  begin
     id 2 
     name lfemur
     direction 0.34202 -0.939693 0  
     length 7.25268  
     axis 0 0 20  XYZ
    dof rx ry rz
    limits (-160.0 20.0)
           (-70.0 70.0)
           (-60.0 70.0)
  end
  begin
     id 3 
     name ltibia
     direction 0.34202 -0.939693 0   
     length 7.6767   
     axis 0 0 20   XYZ
    dof rx
    limits (-10.0 170.0)
  end
  begin
     id 4 
     name lfoot
     direction 0.0803374 -0.220725 0.972022   
     length 2.22945   
     axis -90 7.62852e-016 20   XYZ
    dof rx rz
    limits (-45.0 90.0)
           (-70.0 20.0)
  end
  begin
     id 5 
     name ltoes
     direction 1.53579e-011 -4.21994e-011 1   
     length 1.11848   
     axis -90 7.62852e-016 20   XYZ
    dof rx
    limits (-90.0 20.0)
  end
  begin
     id 6 
     name rhipjoint
     direction -0.664428 -0.664335 0.342336   
     length 2.55466  
     axis 0 0 0  XYZ 
  end
  begin
     id 7 
     name rfemur
     direction -0.34202 -0.939693 0   
     length 6.83172   
     axis 0 0 -20   XYZ
    dof rx ry rz
    limits (-160.0 20.0)
           (-70.0 70.0)
           (-70.0 60.0)
  end
  begin
     id 8 
     name rtibia
     direction -0.34202 -0.939693 0   
     length 7.62692   
     axis 0 0 -20   XYZ
    dof rx
    limits (-10.0 170.0)
 end
 begin
     id 9 
     name rfoot
     direction -0.0949276 -0.260811 0.960711   
     length 2.19684  
     axis -90 -7.62852e-016 -20   XYZ
    dof rx rz
    limits (-45.0 90.0)
           (-20.0 70.0)
  end
  begin
     id 10 
     name rtoes
     direction -1.53543e-011 -4.2183e-011 1   
     length 1.09848   
     axis -90 -7.62852e-016 -20   XYZ
    dof rx
    limits (-90.0 20.0)
  end
  begin
     id 11 
     name lowerback
     direction 0.0118782 0.999815 -0.0151555   
     length 2.15772   
     axis 0 0 0   XYZ
    dof rx ry rz
    limits (-20.0 45.0)
           (-30.0 30.0)
           (-30.0 30.0)
  end
  begin
     id 12 
     name upperback
     direction 0.00130825 0.999065 0.0432113   
     length 2.14863   
     axis 0 0 0   XYZ
    dof rx ry rz
    limits (-20.0 45.0)
           (-30.0 30.0)
           (-30.0 30.0)
  end
  begin
     id 13 
     name thorax
     direction -0.00347005 0.998773 0.0494011   
     length 2.14936   
     axis 0 0 0   XYZ
    dof rx ry rz
    limits (-20.0 45.0)
           (-30.0 30.0)
           (-30.0 30.0)
  end
  begin
     id 14 
     name lowerneck
     direction -0.0262159 0.99424 0.103921   
     length 1.69373   
     axis 0 0 0   XYZ
    dof rx ry rz
    limits (-20.0 45.0)
           (-30.0 30.0)
           (-30.0 30.0)
  end
  begin
     id 15 
     name upperneck
     direction 0.0353511 0.977394 -0.20845   
     length 1.70857   
     axis 0 0 0   XYZ
    dof rx ry rz
    limits (-20.0 45.0)
           (-30.0 30.0)
           (-30.0 30.0)
  end
  begin
     id 16
     name head
     direction 0.0139214 0.996594 -0.0812836  
     length 1.72777  
     axis 0 0 0   XYZ
    dof rx ry rz
    limits (-20.0 45.0)
           (-30.0 30.0)
           (-30.0 30.0)
  end
  begin
     id 17 
     name lclavicle
     direction 0.841247 0.537205 -0.0609508  
     length 3.55371  
     axis 0 0 0   XYZ
    dof ry rz
    limits (-20.0 10.0)
           (0.0 20.0)
  end
  begin
     id 18 
     name lhumerus
     direction 1 -4.48964e-011 1.60116e-018   
     length 4.91377   
     axis -180 -30 -90   XYZ
    dof rx ry rz
    limits (-60.0 90.0)
           (-90.0 90.0)
           (-90.0 90.0)
  end
  begin
     id 19
     name lradius
     direction 1 -4.48989e-011 -8.93847e-027   
     length 3.00291   
     axis -180 -30 -90   XYZ
    dof rx
    limits (-10.0 170.0)
  end
  begin
     id 20
     name lwrist
     direction 1 -4.48932e-011 -7.31504e-027   
     length 1.50145   
     axis 5.74121e-015 90 90   XYZ
    dof ry
    limits (-180.0 0.0)
 end
  begin
     id 21 
     name lhand
     direction 1 -4.48971e-011 -1.46301e-026   
     length 0.450922   
     axis 9.33524e-015 90 90   XYZ
    dof rx rz
    limits (-90.0 90.0)
           (-45.0 45.0)
  end
  begin
     id 22 
     name lfingers
     direction 1 -4.49039e-011 -2.92602e-026   
     length 0.363545   
     axis 1.86705e-014 90 90   XYZ
    dof rx
    limits (0.0 90.0)
  end
  begin
     id 23
     name lthumb
     direction 0.707107 -6.34941e-011 0.707107   
     length 0.52198   
     axis -90 45 2.85299e-015   XYZ
    dof rx rz
    limits (-45.0 45.0)
           (-45.0 45.0)
  end
  begin
     id 24 
     name rclavicle
     direction -0.825079 0.56158 -0.0622297   
     length 3.39909  
     axis 0 0 0   XYZ 
    dof ry rz
    limits (-10.0 20.0)
           (-20.0 0.0)
  end
  begin
     id 25 
     name rhumerus
     direction -1 -4.48965e-011 1.61691e-027  
     length 4.86725   
     axis -180 30 90   XYZ
    dof rx ry rz
    limits (-90.0 60.0)
           (-90.0 90.0)
           (-90.0 90.0)
  end
  begin
     id 26 
     name rradius
     direction -1 -4.48964e-011 -2.25776e-027   
     length 3.17144   
     axis -180 30 90   XYZ
    dof rx
    limits (-10.0 170.0)
  end
  begin
     id 27 
     name rwrist
     direction -1 -4.48961e-011 -7.31504e-027   
     length 1.58572   
     axis 5.74121e-015 -90 -90   XYZ
    dof ry
    limits (-180.0 0.0)
  end
  begin
     id 28
     name rhand
     direction -1 -4.49013e-011 -1.46301e-026   
     length 0.419368   
     axis 9.33524e-015 -90 -90   XYZ
    dof rx rz
    limits (-90.0 90.0)
           (-45.0 45.0)
  end
  begin
     id 29
     name rfingers
     direction -1 -4.489e-011 -2.92602e-026   
     length 0.338105   
     axis 1.86705e-014 -90 -90   XYZ
    dof rx
    limits (0.0 90.0)
  end
  begin
     id 30
     name rthumb
     direction -0.707107 -6.35022e-011 0.707107   
     length 0.485453   
     axis -90 -45 -2.85299e-015   XYZ
    dof rx rz
    limits (-45.0 45.0)
           (-45.0 45.0)
  end
:hierarchy
  begin
    root lhipjoint rhipjoint lowerback
    lhipjoint lfemur
    lfemur ltibia
    ltibia lfoot
    lfoot ltoes
    rhipjoint rfemur
    rfemur rtibia
    rtibia rfoot
    rfoot rtoes
    lowerback upperback
    upperback thorax
    thorax lowerneck lclavicle rclavicle
    lowerneck upperneck
    upperneck head
    lclavicle lhumerus
    lhumerus lradius
    lradius lwrist
    lwrist lhand lthumb
    lhand lfingers
    rclavicle rhumerus
    rhumerus rradius
    rradius rwrist
    rwrist rhand rthumb
    rhand rfingers
  end

#!OML:ASF H:\Swim 2\Project 1\Capture day 1\Session 1\male.ASF
:FULLY-SPECIFIED
:DEGREES
81
root 3.85367 15.1911 8.58109 104.77 -19.8054 1.48174
lowerback -14.6145 6.56001 7.92296
upperback -13.6359 8.02795 -9.97263
thorax -4.23314 3.2456 -14.5845
lowerneck -13.4923 -3.64565 -8.42167
upperneck -18.7018 -4.45689 -2.73259
head -3.8372 -1.60411 0.471332
rclavicle -1.24042e-013 9.06458e-014
rhumerus -3.20392 10.6084 -25.1403
rradius 82.7989
rwrist -24.4061
rhand -7.25174 2.12745
rfingers 7.12502
rthumb 18.6287 -27.0006
lclavicle -1.24042e-013 9.06458e-014
lhumerus 3.70875 -35.0099 34.722
lradius 86.1514
lwrist 63.5402
lhand -38.1713 -25.9611
lfingers 7.12502
lthumb -11.2045 3.71973
rfemur -103.871 -5.89368 6.41362
rtibia 126.378
rfoot 4.22482 26.3608
rtoes -6.41126
lfemur -93.5662 21.6059 -68.238
ltibia 126.527
lfoot -8.2043 28.0463
ltoes 33.1231
82
root 3.87715 15.1985 8.60784 104.747 -20.021 1.73014
lowerback -14.9521 6.46085 7.82596
upperback -13.7202 7.87191 -9.98435
thorax -4.20753 3.16231 -14.5455
lowerneck -13.606 -3.63657 -8.51512
upperneck -18.7073 -4.40372 -2.58062
head -3.81632 -1.57737 0.536505
rclavicle -6.36111e-014 -5.56597e-015
rhumerus -4.65761 12.1615 -27.5787
rradius 84.6616
rwrist -24.8745
rhand -7.1875 2.50803
rfingers 7.12502
rthumb 18.6905 -26.6141
lclavicle -6.36111e-014 -5.56597e-015
lhumerus 0.988318 -36.7857 37.4389
lradius 87.8235
lwrist 63.5061
lhand -38.1929 -26.1245
lfingers 7.12502
lthumb -11.2253 3.55522
rfemur -103.927 -6.49156 6.34431
rtibia 127.613
rfoot 4.34965 26.6033
rtoes -5.5256
lfemur -93.5781 21.9311 -68.6278
ltibia 127.83
lfoot -8.30659 27.9817
ltoes 34.0026
83
root 3.89984 15.2066 8.63521 104.727 -20.2594 1.98222
lowerback -15.2936 6.36418 7.70855
upperback -13.797 7.72206 -10.005
thorax -4.17021 3.08475 -14.5032
lowerneck -13.7046 -3.63765 -8.59815
upperneck -18.7114 -4.36963 -2.44543
head -3.79778 -1.5604 0.594415
rclavicle -6.52014e-014 3.97569e-015
rhumerus -6.05511 13.6884 -30.0324
rradius 86.5149
rwrist -25.3385
rhand -7.10903 2.92481
rfingers 7.12502
rthumb 18.766 -26.19
lclavicle -6.52014e-014 3.97569e-015
lhumerus -1.71265 -38.4395 40.2636
lradius 89.4541
lwrist 63.4763
lhand -38.1479 -26.2907
lfingers 7.12502
lthumb -11.1819 3.39138
rfemur -103.916 -7.13439 6.24725
rtibia 128.824
rfoot 4.53724 26.8222
rtoes -4.40648
lfemur -93.5454 22.303 -69.0081
ltibia 129.148
lfoot -8.42046 27.8541
ltoes 35.2266
84
root 3.92179 15.2151 8.66324 104.726 -20.5094 2.22002
lowerback -15.6488 6.28106 7.56914
upperback -13.8706 7.59396 -10.0371
thorax -4.11604 3.02166 -14.4558
lowerneck -13.7782 -3.65345 -8.66191
upperneck -18.7124 -4.36276 -2.32554
head -3.78217 -1.55797 0.644095
rclavicle 4.29375e-014 -4.29375e-014
rhumerus -7.41403 15.1662 -32.5131
rradius 88.3596
rwrist -25.739
rhand -7.04019 3.3731
rfingers 7.12502
rthumb 18.8322 -25.7353
lclavicle 4.29375e-014 -4.29375e-014
lhumerus -4.33856 -39.9904 43.1516
lradius 91.0347
lwrist 63.4178
lhand -38.061 -26.4809
lfingers 7.12502
lthumb -11.0981 3.20569
rfemur -103.929 -7.79406 6.1474
rtibia 130.045
rfoot 4.72625 27.0308
rtoes -3.35023
lfemur -93.4991 22.7282 -69.3782
ltibia 130.48
lfoot -8.53849 27.7115
ltoes 36.3911
85
root 3.94321 15.2243 8.69135 104.735 -20.7659 2.44812
lowerback -16.0073 6.21406 7.41428
upperback -13.9419 7.49159 -10.0801
thorax -4.05004 2.97438 -14.407
lowerneck -13.8371 -3.68407 -8.68357
upperneck -18.6909 -4.3864 -2.24339
head -3.76118 -1.57363 0.673642
rclavicle 7.15625e-014 -3.10104e-014
rhumerus -8.7331 16.596 -34.9967
rradius 90.1896
rwrist -26.0573
rhand -6.99072 3.83549
rfingers 7.12502
rthumb 18.8797 -25.2683
lclavicle 7.15625e-014 -3.10104e-014
lhumerus -6.84066 -41.4573 46.0618
lradius 92.5514
lwrist 63.3109
lhand -37.9524 -26.7137
lfingers 7.12502
lthumb -10.9933 2.97841
rfemur -103.963 -8.4734 6.04855
rtibia 131.279
rfoot 4.86819 27.2518
rtoes -2.48909
lfemur -93.4303 23.2101 -69.726
ltibia 131.82
lfoot -8.66438 27.593
ltoes 37.3065
86
root 3.96421 15.2344 8.71927 104.749 -21.0201 2.67515
lowerback -16.3654 6.16104 7.2507
upperback -14.0138 7.41164 -10.1268
thorax -3.97861 2.94027 -14.3534
lowerneck -13.8643 -3.72576 -8.67555
upperneck -18.6439 -4.43566 -2.19787
head -3.7364 -1.60407 0.685844
rclavicle 4.6118e-014 -3.81667e-014
rhumerus -9.99766 17.991 -37.4521
rradius 91.9936
rwrist -26.3054
rhand -6.96216 4.29639
rfingers 7.12502
rthumb 18.9072 -24.8047
lclavicle 4.6118e-014 -3.81667e-014
lhumerus -9.18822 -42.8452 48.9734
lradius 93.9824
lwrist 63.1305
lhand -37.8445 -26.9874
lfingers 7.12502
lthumb -10.8893 2.71027
rfemur -104.027 -9.17911 5.96332
rtibia 132.533
rfoot 4.87972 27.552
rtoes -2.26374
lfemur -93.3586 23.7372 -70.0494
ltibia 133.177
lfoot -8.74202 27.5227
ltoes 37.7912
87
root 3.98515 15.2458 8.74652 104.75 -21.2745 2.93264
lowerback -16.7129 6.10572 7.0842
upperback -14.0777 7.33135 -10.1691
thorax -3.90479 2.90688 -14.2939
lowerneck -13.8965 -3.76792 -8.62691
upperneck -18.5566 -4.49472 -2.21101
head -3.69754 -1.64231 0.670775
rclavicle 4.77083e-015 -4.77083e-015
rhumerus -11.1621 19.3652 -39.8505
rradius 93.7523
rwrist -26.5205
rhand -6.95364 4.72478
rfingers 7.12502
rthumb 18.9154 -24.3755
lclavicle 4.77083e-015 -4.77083e-015
lhumerus -11.4141 -44.136 51.9083
lradius 95.3274
lwrist 62.8395
lhand -37.7328 -27.2954
lfingers 7.12502
lthumb -10.7815 2.40789
rfemur -104.096 -9.95785 5.89118
rtibia 133.805
rfoot 4.75407 27.9389
rtoes -2.66585
lfemur -93.2676 24.2757 -70.3369
ltibia 134.542
lfoot -8.77134 27.5377
ltoes 37.8682
88
root 4.00581 15.2589 8.7728 104.72 -21.522 3.22055
lowerback -17.0264 6.0435 6.91999
upperback -14.1281 7.24497 -10.1956
thorax -3.8368 2.87088 -14.2208
lowerneck -13.9217 -3.8054 -8.57012
upperneck -18.4445 -4.55264 -2.26489
head -3.65208 -1.6803 0.64055
rclavicle -2.8625e-014 1.51076e-014
rhumerus -12.2002 20.7291 -42.1672
rradius 95.4524
rwrist -26.7358
rhand -6.95266 5.10311
rfingers 7.12502
rthumb 18.9164 -23.9971
lclavicle -2.8625e-014 1.51076e-014
lhumerus -13.4986 -45.3248 54.8477
lradius 96.574
lwrist 62.4515
lhand -37.6186 -27.6174
lfingers 7.12502
lthumb -10.6714 2.0916
rfemur -104.086 -10.8098 5.81995
rtibia 135.063
rfoot 4.5477 28.397
rtoes -3.39934
lfemur -93.1387 24.851 -70.5687
ltibia 135.901
lfoot -8.71341 27.5537
ltoes 37.5929
89
root 4.02635 15.2736 8.79798 104.677 -21.755 3.52005
lowerback -17.3186 5.98123 6.76277
upperback -14.168 7.16064 -10.2043
thorax -3.76847 2.83669 -14.1315
lowerneck -13.9483 -3.83745 -8.52322
upperneck -18.3114 -4.60315 -2.34176
head -3.5996 -1.71409 0.604158
rclavicle 9.54166e-015 1.35174e-014
rhumerus -13.0964 22.0785 -44.3872
rradius 97.0805
rwrist -26.9729
rhand -6.93683 5.43577
rfingers 7.12502
rthumb 18.9316 -23.6629
lclavicle 9.54166e-015 1.35174e-014
lhumerus -15.4134 -46.403 57.7685
lradius 97.7225
lwrist 62.0087
lhand -37.4835 -27.9212
lfingers 7.12502
lthumb -10.5411 1.79445
rfemur -104.011 -11.7188 5.74494
rtibia 136.3
rfoot 4.33014 28.8795
rtoes -4.28872
lfemur -92.9936 25.4624 -70.7415
ltibia 137.241
lfoot -8.59889 27.5582
ltoes 37.1301
90
root 4.0462 15.2895 8.8225 104.627 -21.986 3.78735
lowerback -17.5782 5.92733 6.58593
upperback -14.1967 7.09394 -10.2001
thorax -3.70172 2.81472 -14.013
lowerneck -13.9724 -3.86929 -8.50285
upperneck -18.1658 -4.64912 -2.41583
head -3.54294 -1.74436 0.573159
rclavicle 6.83819e-014 -1.11319e-014
rhumerus -13.8552 23.3954 -46.5103
rradius 98.6326
rwrist -27.2343
rhand -6.91132 5.74836
rfingers 7.12502
rthumb 18.9561 -23.3479
lclavicle 6.83819e-014 -1.11319e-014
lhumerus -17.1182 -47.3981 60.6217
lradius 98.7869
lwrist 61.5777
lhand -37.3339 -28.1855
lfingers 7.12502
lthumb -10.3968 1.53746
rfemur -103.83 -12.6417 5.62817
rtibia 137.496
rfoot 4.20842 29.3224
rtoes -4.91915
lfemur -92.8155 26.1852 -70.8574
ltibia 138.531
lfoot -8.46191 27.3971
ltoes 36.7963
91
root 4.06541 15.3065 8.84677 104.582 -22.2132 4.00333
lowerback -17.811 5.89091 6.39286
upperback -14.2146 7.05697 -10.1893
thorax -3.62946 2.81154 -13.8714
lowerneck -14.032 -3.90852 -8.48282
upperneck -17.989 -4.70085 -2.5067
head -3.46957 -1.77885 0.535441
rclavicle 3.49861e-014 -5.88403e-014
rhumerus -14.4839 24.6579 -48.5426
rradius 100.109
rwrist -27.4779
rhand -6.89158 6.05099
rfingers 7.12502
rthumb 18.9751 -23.0434
lclavicle 3.49861e-014 -5.88403e-014
lhumerus -18.5713 -48.3359 63.3562
lradius 99.7897
lwrist 61.2024
lhand -37.181 -28.4303
lfingers 7.12502
lthumb -10.2492 1.29998
rfemur -103.551 -13.5563 5.45917
rtibia 138.644
rfoot 4.20797 29.6877
rtoes -5.17709
lfemur -92.5932 27.0532 -70.8941
ltibia 139.739
lfoot -8.36719 27.0492
ltoes 36.6649
92
root 4.08401 15.3238 8.87115 104.556 -22.4375 4.15479
lowerback -18.0277 5.87763 6.18458
upperback -14.224 7.05692 -10.1775
thorax -3.54642 2.83092 -13.7115
lowerneck -14.118 -3.95903 -8.47772
upperneck -17.7922 -4.76053 -2.58891
head -3.38437 -1.81784 0.502173
rclavicle 2.70347e-014 -5.1684e-014
rhumerus -14.9883 25.8497 -50.4875
rradius 101.517
rwrist -27.6535
rhand -6.91024 6.34465
rfingers 7.12502
rthumb 18.9571 -22.7515
lclavicle 2.70347e-014 -5.1684e-014
lhumerus -19.7386 -49.2328 65.9227
lradius 100.764
lwrist 60.8915
lhand -37.0188 -28.5342
lfingers 7.12502
lthumb -10.0928 1.20376
rfemur -103.248 -14.4375 5.24826
rtibia 139.771
rfoot 4.24546 29.9741
rtoes -5.36671
lfemur -92.3539 28.0774 -70.8616
ltibia 140.857
lfoot -8.30028 26.5408
ltoes 36.6783
93
root 4.10202 15.3414 8.89507 104.553 -22.6676 4.25686
lowerback -18.2326 5.88094 5.95753
upperback -14.225 7.08486 -10.1676
thorax -3.45354 2.86789 -13.5365
lowerneck -14.2202 -4.01664 -8.48203
upperneck -17.5857 -4.82514 -2.66504
head -3.29311 -1.85958 0.471925
rclavicle 1.90833e-014 -1.27222e-014
rhumerus -15.3654 26.962 -52.3421
rradius 102.864
rwrist -27.7413
rhand -6.98159 6.63245
rfingers 7.12502
rthumb 18.8885 -22.4704
lclavicle 1.90833e-014 -1.27222e-014
lhumerus -20.6109 -50.1107 68.2891
lradius 101.743
lwrist 60.6601
lhand -36.8506 -28.5781
lfingers 7.12502
lthumb -9.93047 1.16769
rfemur -102.938 -15.307 4.991
rtibia 140.878
rfoot 4.28327 30.1935
rtoes -5.43562
lfemur -92.0925 29.229 -70.7541
ltibia 141.869
lfoot -8.28408 25.9402
ltoes 36.751
94
root 4.11974 15.3594 8.91851 104.559 -22.8956 4.34239
lowerback -18.4248 5.89234 5.73238
upperback -14.2141 7.12617 -10.1555
thorax -3.35058 2.91309 -13.357
lowerneck -14.3223 -4.07033 -8.5031
upperneck -17.3805 -4.88095 -2.73482
head -3.20263 -1.89593 0.446701
rclavicle 3.33958e-014 -1.27222e-014
rhumerus -15.6053 28.0019 -54.0946
rradius 104.163
rwrist -27.7649
rhand -7.13117 6.88276
rfingers 7.12502
rthumb 18.7447 -22.2341
lclavicle 3.33958e-014 -1.27222e-014
lhumerus -21.194 -50.9756 70.4476
lradius 102.747
lwrist 60.4808
lhand -36.669 -28.5598
lfingers 7.12502
lthumb -9.75531 1.19424
rfemur -102.579 -16.1964 4.69477
rtibia 141.94
rfoot 4.29544 30.4144
rtoes -5.59632
lfemur -91.8026 30.4593 -70.5482
ltibia 142.767
lfoot -8.31307 25.311
ltoes 36.7953
95
root 4.13734 15.3778 8.94098 104.569 -23.1368 4.43878
lowerback -18.6041 5.89966 5.50163
upperback -14.1909 7.16471 -10.1424
thorax -3.24219 2.9578 -13.1739
lowerneck -14.3968 -4.11216 -8.5543
upperneck -17.2014 -4.91953 -2.79272
head -3.1261 -1.92046 0.431588
rclavicle -8.26944e-014 6.52014e-014
rhumerus -15.7 28.9818 -55.7286
rradius 105.425
rwrist -27.7429
rhand -7.42069 7.16957
rfingers 7.12502
rthumb 18.4662 -21.9739
lclavicle -8.26944e-014 6.52014e-014
lhumerus -21.4957 -51.8214 72.3914
lradius 103.794
lwrist 60.3242
lhand -36.442 -28.4599
lfingers 7.12502
lthumb -9.53624 1.30427
rfemur -102.18 -17.1501 4.3489
rtibia 142.954
rfoot 4.24554 30.6687
rtoes -5.86555
lfemur -91.4651 31.6842 -70.2486
ltibia 143.518
lfoot -8.27013 24.7578
ltoes 36.6917
